<svg height="510" width="720" xmlns="http://www.w3.org/2000/svg">
<rect height="510" fill="#555" width="720"></rect>
<text fill="#7f7" font-family="Courier New" font-size="12" xml:space="preserve">
<tspan x="10" y="26">4 megabytes installed</tspan>
<tspan x="10" y="42"></tspan>
<tspan x="10" y="58">node_modules</tspan>
<tspan x="10" y="74">└─┬ netjet@1.1.3 </tspan>
<tspan x="10" y="90">  ├─┬ bl@1.2.0 </tspan>
<tspan x="10" y="106">  │ └─┬ readable-stream@2.2.9 </tspan>
<tspan x="10" y="122">  │   ├── buffer-shims@1.0.0 </tspan>
<tspan x="10" y="138">  │   ├── core-util-is@1.0.2 </tspan>
<tspan x="10" y="154">  │   ├── inherits@2.0.3 </tspan>
<tspan x="10" y="170">  │   ├── isarray@1.0.0 </tspan>
<tspan x="10" y="186">  │   ├── process-nextick-args@1.0.7 </tspan>
<tspan x="10" y="202">  │   ├── string_decoder@1.0.0 </tspan>
<tspan x="10" y="218">  │   └── util-deprecate@1.0.2 </tspan>
<tspan x="10" y="234">  ├── hijackresponse@2.0.1 </tspan>
<tspan x="10" y="250">  ├── lodash.defaults@4.2.0 </tspan>
<tspan x="10" y="266">  ├── lodash.unescape@4.0.1 </tspan>
<tspan x="10" y="282">  ├─┬ lru-cache@4.0.2 </tspan>
<tspan x="10" y="298">  │ ├── pseudomap@1.0.2 </tspan>
<tspan x="10" y="314">  │ └── yallist@2.1.2 </tspan>
<tspan x="10" y="330">  └─┬ posthtml@0.9.2 </tspan>
<tspan x="10" y="346">    ├─┬ posthtml-parser@0.2.1 </tspan>
<tspan x="10" y="362">    │ ├─┬ htmlparser2@3.9.2 </tspan>
<tspan x="10" y="378">    │ │ ├── domelementtype@1.3.0 </tspan>
<tspan x="10" y="394">    │ │ ├── domhandler@2.3.0 </tspan>
<tspan x="10" y="410">    │ │ ├─┬ domutils@1.5.1 </tspan>
<tspan x="10" y="426">    │ │ │ └─┬ dom-serializer@0.1.0 </tspan>
<tspan x="10" y="442">    │ │ │   └── domelementtype@1.1.3 </tspan>
<tspan x="10" y="458">    │ │ └── entities@1.1.1 </tspan>
<tspan x="10" y="474">    │ └── isobject@2.1.0 </tspan>
<tspan x="10" y="490">    └── posthtml-render@1.0.6</tspan>
</text>
</svg>
